<svg xmlns="http://www.w3.org/2000/svg" viewBox="0 0 494 494"><defs><style>.cls-1{fill:#fff;stroke:#231f20;stroke-linecap:round;stroke-miterlimit:10;stroke-width:4px;}</style></defs><g id="circle"><circle class="cls-1" cx="247" cy="247" r="245"/></g><g id="lama"><path d="M357.23,175.56l-26.16-69.47,29.81-34.46A2.2,2.2,0,0,0,361,68.9L352.56,58a2.18,2.18,0,0,0-2.12-.82l-41.5,7.48,5.36-34a2.18,2.18,0,0,0-1.81-2.5,2.21,2.21,0,0,0-1.65.41L292.5,42.2a2.15,2.15,0,0,0-.76,1l-9,26.27h0a2.19,2.19,0,0,0-.11.84l9.58,146.37-62.64,7.15-58.29.73h-.06a2,2,0,0,0-.54.12,1.27,1.27,0,0,0-.28.06L147,235.38s0,.05-.07.07a.44.44,0,0,0-.16.06l-25.19,15.32a2.19,2.19,0,0,0,.41,3.93L147.8,264l5.2,66.79a2.17,2.17,0,0,0,2.17,2h5.94l7.33,44.74a2.18,2.18,0,0,0,2,1.83h.12a2.18,2.18,0,0,0,2.1-1.59l12.6-45h6a2.17,2.17,0,0,0,2.07-1.49l10.78-32.49,45.54,3.87,36.86,22s16.29,53.44,16.35,53.51a2.09,2.09,0,0,0,.68,1l.17.12a1.92,1.92,0,0,0,1,.38h.16a2.24,2.24,0,0,0,.63-.1h.05a2.35,2.35,0,0,0,.7-.37.69.69,0,0,0,.11-.13,2,2,0,0,0,.39-.48c0-.09.08-.18.11-.27A1.51,1.51,0,0,0,307,378l9.8-45.88,33.56-71.9v-.13h0l19.85-54.75a2.17,2.17,0,0,0-.07-1.66ZM349.91,61.67l6.5,8.47-27.5,31.79-19.16-33ZM295.65,45.3l13.5-10.08L304.4,65.37,288,67.59Zm3.76,281.9-9.71-5.78a2.43,2.43,0,0,0-.44-.26l-37.32-22.23-30.6-45.05,9.89-25.8,61.23-7ZM167.54,230.88,152.89,273l-2.68-34.31Zm-39.76,21.31L146,241.09l1.41,18.1Zm43.41,114.92-5.62-34.31h15.24Zm18.58-38.67H157.23l-3.5-44.63a.55.55,0,0,0,.08-.1l19-54.75,53.65-.67L200.6,295.73h0v0Zm29.67-69.6L246,298l-40.3-3.42Zm80.32,73.65,1.72,26.18L292.16,328Zm13-2.07a2,2,0,0,0-.15.47L306,361.64,287,72.11l18.07-2.45,21.44,37L353,176.74l-6.72,81.91Zm39.15-87.27,4.8-58.33,9.19,19.76Z"/></g><g id="text"><path d="M98.28,389.65v21.17h8.46v6H91.22V389.65Z"/><path d="M135.32,412.08H125.24l-1.62,4.72H116.1l10.33-27.15h7.7l10.33,27.15h-7.52Zm-1.87-5.36-3.17-9-3.17,9Z"/><path d="M153.53,416.8l4.61-27.15h7l5.43,14.48,5.4-14.48h7l4.6,27.15h-7l-2.34-15.63-6.4,15.63H169l-6.09-15.63-2.34,15.63Z"/><path d="M215.85,412.08H205.77l-1.62,4.72h-7.52L207,389.65h7.7L225,416.8h-7.52ZM214,406.72l-3.17-9-3.17,9Z"/><path d="M259.23,389.66V413h8v3.85H255.14V389.66Z"/><path d="M282.39,389.66V416.8H278.3V389.66Z"/><path d="M297.49,389.66l7.5,18.81,7.61-18.81h4.49L304.9,418.84,293,389.66Z"/><path d="M331.76,389.66V416.8h-4.1V389.66Z"/><path d="M345.48,416.8v-29l19.79,20.71V389.66h4.1v28.79l-19.8-20.65v19Z"/><path d="M397.31,402.66h11.21v.9a18.58,18.58,0,0,1-.72,5.42,11.51,11.51,0,0,1-2.37,4.07,12.28,12.28,0,0,1-9.62,4.26,13.2,13.2,0,0,1-9.75-4.12,14.13,14.13,0,0,1,10.12-24.06,13.76,13.76,0,0,1,5.95,1.3,17.2,17.2,0,0,1,5.18,4.22l-2.92,2.79q-3.33-4.44-8.14-4.44a9.71,9.71,0,0,0-7.22,3,9.89,9.89,0,0,0-2.92,7.31,10.2,10.2,0,0,0,9.85,10.2,8.2,8.2,0,0,0,5.43-2,7.3,7.3,0,0,0,2.69-4.93h-6.77Z"/></g></svg>